<mxfile host="65bd71144e">
    <diagram id="60mzSh-y_e8uUhMRRJ_0" name="Page-1">
        <mxGraphModel dx="746" dy="571" grid="1" gridSize="10" guides="1" tooltips="1" connect="1" arrows="1" fold="1" page="1" pageScale="1" pageWidth="850" pageHeight="1100" math="0" shadow="0">
            <root>
                <mxCell id="0"/>
                <mxCell id="1" parent="0"/>
                <mxCell id="45" value="" style="group;flipH=0;flipV=0;" vertex="1" connectable="0" parent="1">
                    <mxGeometry x="100" y="180" width="600" height="180" as="geometry"/>
                </mxCell>
                <mxCell id="30" value="" style="rounded=0;whiteSpace=wrap;html=1;" vertex="1" parent="45">
                    <mxGeometry y="60" width="200" height="60" as="geometry"/>
                </mxCell>
                <mxCell id="19" value="" style="rounded=0;whiteSpace=wrap;html=1;" vertex="1" parent="45">
                    <mxGeometry width="600" height="60" as="geometry"/>
                </mxCell>
                <mxCell id="26" value="Drink" style="text;html=1;strokeColor=none;fillColor=none;align=center;verticalAlign=middle;whiteSpace=wrap;rounded=0;" vertex="1" parent="45">
                    <mxGeometry x="450" y="30" width="120" height="30" as="geometry"/>
                </mxCell>
                <mxCell id="22" value="Strength" style="text;html=1;strokeColor=none;fillColor=none;align=center;verticalAlign=middle;whiteSpace=wrap;rounded=0;" vertex="1" parent="45">
                    <mxGeometry x="50" y="30" width="120" height="30" as="geometry"/>
                </mxCell>
                <mxCell id="21" value="ButtonPressed = ?" style="text;html=1;strokeColor=none;fillColor=none;align=center;verticalAlign=middle;whiteSpace=wrap;rounded=0;" vertex="1" parent="45">
                    <mxGeometry x="280" width="220" height="30" as="geometry"/>
                </mxCell>
                <mxCell id="20" value="" style="endArrow=none;html=1;entryX=0;entryY=0;entryDx=0;entryDy=0;exitX=1;exitY=1;exitDx=0;exitDy=0;" edge="1" parent="45" source="19" target="19">
                    <mxGeometry width="50" height="50" relative="1" as="geometry">
                        <mxPoint x="1120" y="270" as="sourcePoint"/>
                        <mxPoint x="1220" y="220" as="targetPoint"/>
                    </mxGeometry>
                </mxCell>
                <mxCell id="24" value="Size" style="text;html=1;strokeColor=none;fillColor=none;align=center;verticalAlign=middle;whiteSpace=wrap;rounded=0;" vertex="1" parent="45">
                    <mxGeometry x="250" y="30" width="120" height="30" as="geometry"/>
                </mxCell>
                <mxCell id="31" value="" style="rounded=0;whiteSpace=wrap;html=1;" vertex="1" parent="45">
                    <mxGeometry x="200" y="60" width="200" height="60" as="geometry"/>
                </mxCell>
                <mxCell id="32" value="PourDrink(SelectedDrink)" style="rounded=0;whiteSpace=wrap;html=1;" vertex="1" parent="45">
                    <mxGeometry x="400" y="60" width="200" height="60" as="geometry"/>
                </mxCell>
                <mxCell id="33" value="Strength &amp;lt; MaxStrength" style="triangle;whiteSpace=wrap;html=1;direction=south;spacingTop=-30;" vertex="1" parent="45">
                    <mxGeometry y="60" width="200" height="60" as="geometry"/>
                </mxCell>
                <mxCell id="35" value="Size &amp;lt; MaxSize" style="triangle;whiteSpace=wrap;html=1;direction=south;spacingTop=-30;" vertex="1" parent="45">
                    <mxGeometry x="200" y="60" width="200" height="60" as="geometry"/>
                </mxCell>
                <mxCell id="37" value="Yes" style="text;html=1;strokeColor=none;fillColor=none;align=center;verticalAlign=middle;whiteSpace=wrap;rounded=0;" vertex="1" parent="45">
                    <mxGeometry y="90" width="60" height="30" as="geometry"/>
                </mxCell>
                <mxCell id="38" value="No" style="text;html=1;strokeColor=none;fillColor=none;align=center;verticalAlign=middle;whiteSpace=wrap;rounded=0;" vertex="1" parent="45">
                    <mxGeometry x="140" y="90" width="60" height="30" as="geometry"/>
                </mxCell>
                <mxCell id="39" value="Yes" style="text;html=1;strokeColor=none;fillColor=none;align=center;verticalAlign=middle;whiteSpace=wrap;rounded=0;" vertex="1" parent="45">
                    <mxGeometry x="200" y="90" width="60" height="30" as="geometry"/>
                </mxCell>
                <mxCell id="40" value="No" style="text;html=1;strokeColor=none;fillColor=none;align=center;verticalAlign=middle;whiteSpace=wrap;rounded=0;" vertex="1" parent="45">
                    <mxGeometry x="340" y="90" width="60" height="30" as="geometry"/>
                </mxCell>
                <mxCell id="41" value="Strength += 1" style="rounded=0;whiteSpace=wrap;html=1;" vertex="1" parent="45">
                    <mxGeometry y="120" width="100" height="60" as="geometry"/>
                </mxCell>
                <mxCell id="42" value="Strength = MinStrength" style="rounded=0;whiteSpace=wrap;html=1;" vertex="1" parent="45">
                    <mxGeometry x="100" y="120" width="100" height="60" as="geometry"/>
                </mxCell>
                <mxCell id="43" value="Size += 1" style="rounded=0;whiteSpace=wrap;html=1;" vertex="1" parent="45">
                    <mxGeometry x="200" y="120" width="100" height="60" as="geometry"/>
                </mxCell>
                <mxCell id="44" value="Size = MinSize" style="rounded=0;whiteSpace=wrap;html=1;" vertex="1" parent="45">
                    <mxGeometry x="300" y="120" width="100" height="60" as="geometry"/>
                </mxCell>
            </root>
        </mxGraphModel>
    </diagram>
</mxfile>